<?xml version="1.0" standalone="no"?>
<!DOCTYPE svg PUBLIC "-//W3C//DTD SVG 20010904//EN"
 "http://www.w3.org/TR/2001/REC-SVG-20010904/DTD/svg10.dtd">
<svg version="1.0" xmlns="http://www.w3.org/2000/svg"
 width="834.000000pt" height="715.000000pt" viewBox="0 0 834.000000 715.000000"
 preserveAspectRatio="xMidYMid meet">

<g transform="translate(0.000000,715.000000) scale(0.100000,-0.100000)"
fill="#000000" stroke="none">
<path d="M7550 6030 c0 -79 0 -80 -25 -80 -23 0 -25 -3 -25 -50 0 -47 -2 -50
-25 -50 -23 0 -25 -3 -25 -50 0 -47 -2 -50 -25 -50 -23 0 -25 -3 -25 -50 0
-47 -2 -50 -25 -50 -24 0 -25 -3 -25 -55 0 -52 -1 -55 -25 -55 -24 0 -25 -2
-25 -75 0 -73 -1 -75 -25 -75 -20 0 -25 -5 -25 -25 0 -21 -5 -25 -30 -25 -29
0 -30 -1 -30 -50 0 -47 -2 -50 -25 -50 -24 0 -25 -3 -25 -55 0 -52 -1 -55 -25
-55 -23 0 -25 -3 -25 -50 0 -47 -2 -50 -25 -50 -20 0 -25 -5 -25 -25 0 -20 -5
-25 -25 -25 -23 0 -25 -3 -25 -50 0 -47 -2 -50 -25 -50 -23 0 -25 -3 -25 -50
0 -47 -2 -50 -25 -50 -21 0 -25 -5 -25 -30 0 -25 -4 -30 -25 -30 -23 0 -25 -3
-25 -50 0 -49 -1 -50 -30 -50 -29 0 -30 -1 -30 -50 0 -47 -2 -50 -25 -50 -23
0 -25 -3 -25 -50 0 -47 -2 -50 -25 -50 -24 0 -25 -3 -25 -55 0 -52 -1 -55 -25
-55 -23 0 -25 -3 -25 -50 0 -47 -2 -50 -25 -50 -23 0 -25 -3 -25 -50 0 -47 -2
-50 -25 -50 -23 0 -25 -3 -25 -50 0 -47 -2 -50 -25 -50 -23 0 -25 -3 -25 -50
0 -47 -2 -50 -25 -50 -21 0 -25 -5 -25 -30 0 -25 -4 -30 -25 -30 -23 0 -25 -3
-25 -50 0 -49 -1 -50 -30 -50 -29 0 -30 -1 -30 -50 0 -47 -2 -50 -25 -50 -23
0 -25 -3 -25 -50 0 -47 -2 -50 -25 -50 -24 0 -25 -3 -25 -55 0 -52 -1 -55 -25
-55 -23 0 -25 -3 -25 -50 l0 -50 -75 0 c-73 0 -75 1 -75 25 0 20 -5 25 -25 25
-20 0 -25 5 -25 25 0 24 -3 25 -55 25 -54 0 -55 0 -55 30 l0 30 -100 0 -100 0
0 -105 0 -105 25 0 c20 0 25 -5 25 -25 0 -20 5 -25 25 -25 20 0 25 -5 25 -25
0 -23 3 -25 50 -25 47 0 50 -2 50 -25 0 -24 3 -25 55 -25 52 0 55 -1 55 -25 0
-21 -5 -25 -30 -25 -30 0 -30 -1 -30 -55 0 -52 -1 -55 -25 -55 -20 0 -25 -5
-25 -25 0 -20 -5 -25 -25 -25 -20 0 -25 -5 -25 -25 0 -20 -5 -25 -25 -25 -23
0 -25 -3 -25 -50 0 -47 -2 -50 -25 -50 -20 0 -25 -5 -25 -25 0 -20 -5 -25 -25
-25 -20 0 -25 -5 -25 -25 0 -20 -5 -25 -25 -25 -21 0 -25 -5 -25 -30 0 -25 -4
-30 -25 -30 -20 0 -25 -5 -25 -25 0 -21 -5 -25 -30 -25 -25 0 -30 -4 -30 -25
0 -20 -5 -25 -25 -25 -20 0 -25 -5 -25 -25 0 -20 -5 -25 -25 -25 -20 0 -25 -5
-25 -25 0 -23 -3 -25 -50 -25 -47 0 -50 -2 -50 -25 0 -23 -3 -25 -50 -25 -47
0 -50 -2 -50 -25 0 -25 -1 -25 -80 -25 -79 0 -80 0 -80 -25 l0 -25 -100 0
-100 0 0 -30 0 -30 -105 0 -105 0 0 -25 0 -25 -100 0 -100 0 0 -25 c0 -20 -5
-25 -25 -25 -25 0 -25 1 -25 80 0 79 0 80 -25 80 l-25 0 0 125 0 125 -30 0
-30 0 0 80 c0 79 0 80 -25 80 -23 0 -25 3 -25 50 0 47 -2 50 -25 50 -23 0 -25
3 -25 50 0 47 -2 50 -25 50 -20 0 -25 5 -25 25 0 20 -5 25 -25 25 -20 0 -25 5
-25 25 0 20 -5 25 -25 25 -20 0 -25 5 -25 25 0 20 -5 25 -25 25 -21 0 -25 5
-25 30 0 25 -4 30 -25 30 -20 0 -25 5 -25 25 0 21 -5 25 -30 25 -25 0 -30 4
-30 25 0 20 -5 25 -25 25 -20 0 -25 5 -25 25 0 20 -5 25 -25 25 -20 0 -25 5
-25 25 0 23 -3 25 -50 25 -47 0 -50 2 -50 25 0 23 -3 25 -50 25 -47 0 -50 2
-50 25 0 25 -1 25 -80 25 -79 0 -80 0 -80 25 l0 25 -100 0 -100 0 0 30 0 30
-180 0 -180 0 0 -30 0 -30 -130 0 -130 0 0 -25 c0 -23 -3 -25 -50 -25 -47 0
-50 -2 -50 -25 0 -23 -3 -25 -50 -25 -47 0 -50 -2 -50 -25 0 -20 -5 -25 -25
-25 l-25 0 0 130 0 130 25 0 c20 0 25 5 25 25 0 20 5 25 25 25 23 0 25 3 25
50 0 47 2 50 25 50 20 0 25 5 25 25 0 20 5 25 25 25 20 0 25 5 25 25 0 20 5
25 25 25 20 0 25 5 25 25 0 21 5 25 30 25 27 0 30 3 30 30 0 29 1 30 50 30 47
0 50 2 50 25 0 20 5 25 25 25 20 0 25 5 25 25 0 20 5 25 25 25 23 0 25 3 25
50 0 47 -2 50 -25 50 -20 0 -25 -5 -25 -25 0 -20 -5 -25 -25 -25 -20 0 -25 -5
-25 -25 0 -20 -5 -25 -25 -25 -20 0 -25 -5 -25 -25 0 -20 -5 -25 -25 -25 -20
0 -25 -5 -25 -25 0 -24 -3 -25 -55 -25 l-55 0 0 -55 c0 -52 -1 -55 -25 -55
-20 0 -25 -5 -25 -25 0 -20 -5 -25 -25 -25 -20 0 -25 -5 -25 -25 0 -20 -5 -25
-25 -25 -23 0 -25 -3 -25 -50 0 -47 -2 -50 -25 -50 -20 0 -25 -5 -25 -25 0
-20 -5 -25 -25 -25 l-25 0 0 -130 0 -130 -25 0 -25 0 0 105 0 105 -30 0 -30 0
0 100 0 100 30 0 30 0 0 130 0 130 25 0 c23 0 25 3 25 50 0 47 2 50 25 50 23
0 25 3 25 50 0 47 -2 50 -25 50 -20 0 -25 -5 -25 -25 0 -20 -5 -25 -25 -25
-24 0 -25 -2 -25 -75 l0 -75 -30 0 -30 0 0 -130 0 -130 -25 0 -25 0 0 -100 0
-100 25 0 25 0 0 -105 0 -105 -25 0 c-20 0 -25 5 -25 25 0 20 -5 25 -25 25
-20 0 -25 5 -25 25 0 20 -5 25 -25 25 -24 0 -25 3 -25 55 0 52 -1 55 -25 55
l-25 0 0 175 0 175 -25 0 -25 0 0 -175 0 -175 25 0 c24 0 25 -3 25 -55 0 -52
1 -55 25 -55 23 0 25 -3 25 -50 l0 -50 50 0 c47 0 50 -2 50 -25 0 -20 5 -25
25 -25 20 0 25 -5 25 -25 0 -20 -5 -25 -25 -25 -20 0 -25 -5 -25 -25 0 -20 -5
-25 -25 -25 -24 0 -25 -3 -25 -55 0 -52 -1 -55 -25 -55 -20 0 -25 -5 -25 -25
0 -20 -5 -25 -25 -25 -20 0 -25 -5 -25 -25 0 -20 -5 -25 -25 -25 -23 0 -25 -3
-25 -50 0 -47 -2 -50 -25 -50 -23 0 -25 -3 -25 -50 0 -47 -2 -50 -25 -50 -24
0 -25 -3 -25 -55 0 -54 0 -55 -30 -55 l-30 0 0 -100 0 -100 -25 0 c-20 0 -25
-5 -25 -25 0 -20 -5 -25 -25 -25 -20 0 -25 5 -25 25 0 20 -5 25 -25 25 -20 0
-25 5 -25 25 0 23 -3 25 -50 25 -47 0 -50 2 -50 25 0 23 -3 25 -50 25 -47 0
-50 2 -50 25 l0 25 -235 0 -235 0 0 -25 c0 -20 -5 -25 -25 -25 -20 0 -25 -5
-25 -25 0 -20 -5 -25 -25 -25 -20 0 -25 -5 -25 -25 0 -20 -5 -25 -25 -25 -23
0 -25 -3 -25 -50 0 -47 -2 -50 -25 -50 -24 0 -25 -3 -25 -55 0 -52 -1 -55 -25
-55 l-25 0 0 -150 0 -150 -25 0 c-20 0 -25 -5 -25 -25 0 -20 5 -25 25 -25 21
0 25 -5 25 -30 0 -25 4 -30 25 -30 20 0 25 -5 25 -25 0 -23 3 -25 50 -25 47 0
50 2 50 25 0 20 5 25 25 25 l25 0 0 105 0 105 -25 0 c-20 0 -25 5 -25 25 0 23
-3 25 -50 25 l-50 0 0 50 c0 47 2 50 25 50 24 0 25 3 25 55 0 52 1 55 25 55
23 0 25 3 25 50 0 47 2 50 25 50 20 0 25 5 25 25 0 20 5 25 25 25 20 0 25 5
25 25 0 21 5 25 30 25 25 0 30 4 30 25 l0 25 175 0 175 0 0 -25 c0 -24 3 -25
55 -25 52 0 55 -1 55 -25 0 -23 3 -25 50 -25 47 0 50 -2 50 -25 0 -20 5 -25
25 -25 20 0 25 -5 25 -25 0 -23 3 -25 50 -25 l50 0 0 -260 0 -260 25 0 c23 0
25 -3 25 -50 0 -49 1 -50 30 -50 29 0 30 -1 30 -50 0 -47 2 -50 25 -50 23 0
25 -3 25 -50 0 -47 2 -50 25 -50 24 0 25 -3 25 -55 0 -52 1 -55 25 -55 23 0
25 -3 25 -50 0 -47 2 -50 25 -50 20 0 25 -5 25 -25 0 -20 5 -25 25 -25 20 0
25 -5 25 -25 0 -20 5 -25 25 -25 20 0 25 -5 25 -25 0 -20 5 -25 25 -25 20 0
25 -5 25 -25 0 -24 3 -25 55 -25 52 0 55 -1 55 -25 0 -20 5 -25 25 -25 21 0
25 -5 25 -30 0 -25 4 -30 25 -30 20 0 25 -5 25 -25 0 -20 -5 -25 -25 -25 -23
0 -25 -3 -25 -50 0 -47 -2 -50 -25 -50 -20 0 -25 -5 -25 -25 0 -20 -5 -25 -25
-25 -20 0 -25 -5 -25 -25 0 -21 -5 -25 -30 -25 -25 0 -30 -4 -30 -25 0 -20 -5
-25 -25 -25 -20 0 -25 -5 -25 -25 0 -20 -5 -25 -25 -25 -20 0 -25 -5 -25 -25
0 -23 -3 -25 -50 -25 -49 0 -50 -1 -50 -30 0 -29 -1 -30 -50 -30 -49 0 -50 1
-50 30 0 30 -1 30 -55 30 -52 0 -55 1 -55 25 0 20 -5 25 -25 25 -20 0 -25 5
-25 25 0 23 -3 25 -50 25 -47 0 -50 2 -50 25 0 20 -5 25 -25 25 -20 0 -25 5
-25 25 0 20 -5 25 -25 25 -23 0 -25 3 -25 50 0 47 -2 50 -25 50 -20 0 -25 5
-25 25 0 20 -5 25 -25 25 -24 0 -25 3 -25 55 0 54 0 55 -30 55 l-30 0 0 -105
0 -105 -25 0 -25 0 0 -180 0 -180 55 0 55 0 0 180 0 180 25 0 c20 0 25 -5 25
-25 0 -20 5 -25 25 -25 23 0 25 -3 25 -50 0 -47 2 -50 25 -50 20 0 25 -5 25
-25 0 -23 3 -25 50 -25 47 0 50 -2 50 -25 0 -20 5 -25 25 -25 21 0 25 -5 25
-30 0 -30 1 -30 55 -30 52 0 55 -1 55 -25 l0 -25 100 0 100 0 0 25 c0 23 3 25
50 25 49 0 50 1 50 30 0 25 4 30 25 30 20 0 25 5 25 25 0 21 5 25 30 25 25 0
30 4 30 25 0 20 5 25 25 25 20 0 25 5 25 25 0 20 5 25 25 25 23 0 25 3 25 50
0 47 2 50 25 50 20 0 25 5 25 25 0 20 5 25 25 25 20 0 25 5 25 25 0 20 5 25
25 25 20 0 25 -5 25 -25 0 -23 3 -25 50 -25 47 0 50 -2 50 -25 l0 -25 105 0
105 0 0 -25 0 -25 180 0 180 0 0 25 0 25 150 0 150 0 0 25 c0 24 3 25 55 25
52 0 55 1 55 25 0 23 3 25 50 25 47 0 50 2 50 25 0 24 2 25 75 25 l75 0 0 30
0 30 130 0 130 0 0 25 0 25 155 0 155 0 0 -25 c0 -24 2 -25 75 -25 l75 0 0
-30 c0 -25 4 -30 25 -30 20 0 25 -5 25 -25 0 -20 5 -25 25 -25 20 0 25 -5 25
-25 0 -20 5 -25 25 -25 23 0 25 -3 25 -50 0 -49 1 -50 30 -50 29 0 30 -1 30
-50 0 -47 2 -50 25 -50 l25 0 0 -230 0 -230 150 0 150 0 0 25 0 25 130 0 130
0 0 50 c0 47 -2 50 -25 50 -23 0 -25 3 -25 50 l0 50 -50 0 c-47 0 -50 -2 -50
-25 0 -24 -3 -25 -55 -25 -52 0 -55 -1 -55 -25 0 -24 -2 -25 -75 -25 -73 0
-75 -1 -75 -25 0 -23 -3 -25 -50 -25 l-50 0 0 180 0 180 -25 0 c-24 0 -25 2
-25 75 0 73 -1 75 -25 75 -23 0 -25 3 -25 50 0 49 -1 50 -30 50 -25 0 -30 4
-30 25 0 20 -5 25 -25 25 -21 0 -25 5 -25 30 0 25 -4 30 -25 30 -20 0 -25 5
-25 25 0 24 -2 25 -75 25 -73 0 -75 1 -75 25 l0 25 -180 0 -180 0 0 -25 c0
-24 -2 -25 -75 -25 -73 0 -75 1 -75 25 0 23 3 25 50 25 l50 0 0 50 c0 47 2 50
25 50 23 0 25 3 25 50 0 47 2 50 25 50 20 0 25 5 25 25 0 20 5 25 25 25 21 0
25 5 25 30 0 25 4 30 25 30 20 0 25 5 25 25 0 20 5 25 25 25 23 0 25 3 25 50
0 49 1 50 30 50 l30 0 0 130 0 130 25 0 25 0 0 100 0 100 50 0 c47 0 50 2 50
25 l0 25 100 0 100 0 0 25 0 25 105 0 105 0 0 25 c0 24 2 25 75 25 l75 0 0 30
0 30 80 0 c79 0 80 0 80 25 0 24 2 25 75 25 73 0 75 1 75 25 0 20 5 25 25 25
20 0 25 5 25 25 0 23 3 25 50 25 47 0 50 2 50 25 0 21 5 25 30 25 25 0 30 4
30 25 0 20 5 25 25 25 20 0 25 5 25 25 0 20 5 25 25 25 20 0 25 5 25 25 0 20
5 25 25 25 21 0 25 5 25 30 0 25 4 30 25 30 20 0 25 5 25 25 0 20 5 25 25 25
23 0 25 3 25 50 0 47 2 50 25 50 20 0 25 5 25 25 0 20 5 25 25 25 20 0 25 5
25 25 0 21 5 25 30 25 29 0 30 -1 30 -50 0 -49 -1 -50 -30 -50 -25 0 -30 -4
-30 -25 0 -20 -5 -25 -25 -25 -23 0 -25 -3 -25 -50 0 -47 -2 -50 -25 -50 -24
0 -25 -3 -25 -55 0 -52 -1 -55 -25 -55 -23 0 -25 -3 -25 -50 0 -47 -2 -50 -25
-50 -24 0 -25 -2 -25 -75 0 -73 1 -75 25 -75 20 0 25 -5 25 -25 0 -24 2 -25
75 -25 73 0 75 1 75 25 0 21 5 25 30 25 l30 0 0 100 0 100 25 0 c23 0 25 3 25
50 0 47 2 50 25 50 25 0 25 1 25 80 0 79 0 80 25 80 20 0 25 5 25 25 0 20 5
25 25 25 23 0 25 3 25 50 l0 50 50 0 c47 0 50 -2 50 -25 0 -24 3 -25 55 -25
52 0 55 -1 55 -25 0 -24 2 -25 75 -25 73 0 75 -1 75 -25 0 -20 5 -25 25 -25
20 0 25 -5 25 -25 l0 -25 130 0 130 0 0 100 0 100 -30 0 c-25 0 -30 4 -30 25
0 24 -2 25 -75 25 -73 0 -75 1 -75 25 0 23 -3 25 -50 25 -49 0 -50 1 -50 30 0
29 -1 30 -50 30 -47 0 -50 2 -50 25 0 20 -5 25 -25 25 -23 0 -25 3 -25 50 0
47 2 50 25 50 23 0 25 3 25 50 0 47 2 50 25 50 20 0 25 5 25 25 0 20 5 25 25
25 24 0 25 3 25 55 0 52 1 55 25 55 23 0 25 3 25 50 0 47 2 50 25 50 23 0 25
3 25 50 0 47 2 50 25 50 23 0 25 3 25 50 0 47 2 50 25 50 20 0 25 5 25 25 0
20 5 25 25 25 24 0 25 3 25 55 0 54 0 55 30 55 29 0 30 1 30 50 0 47 2 50 25
50 23 0 25 3 25 50 0 47 2 50 25 50 23 0 25 3 25 50 0 47 2 50 25 50 20 0 25
5 25 25 0 20 5 25 25 25 24 0 25 3 25 55 0 52 1 55 25 55 23 0 25 3 25 50 0
47 2 50 25 50 23 0 25 3 25 50 0 47 2 50 25 50 20 0 25 5 25 25 0 21 5 25 30
25 30 0 30 1 30 55 0 52 1 55 25 55 23 0 25 3 25 50 0 47 2 50 25 50 20 0 25
5 25 25 0 20 5 25 25 25 23 0 25 3 25 50 0 47 2 50 25 50 23 0 25 3 25 50 0
47 2 50 25 50 21 0 25 5 25 30 0 25 4 30 25 30 23 0 25 3 25 50 0 47 2 50 25
50 20 0 25 5 25 25 0 21 5 25 30 25 29 0 30 1 30 50 0 47 2 50 25 50 l25 0 0
130 0 130 -25 0 -25 0 0 180 0 180 -30 0 c-25 0 -30 4 -30 25 0 20 -5 25 -25
25 -25 0 -25 -1 -25 -80z m50 -255 l0 -125 30 0 30 0 0 -80 0 -80 -30 0 c-29
0 -30 -1 -30 -50 0 -47 -2 -50 -25 -50 -20 0 -25 -5 -25 -25 0 -20 -5 -25 -25
-25 -23 0 -25 -3 -25 -50 0 -47 -2 -50 -25 -50 -20 0 -25 -5 -25 -25 0 -20 -5
-25 -25 -25 -24 0 -25 -3 -25 -55 0 -52 -1 -55 -25 -55 -23 0 -25 -3 -25 -50
0 -47 -2 -50 -25 -50 -20 0 -25 -5 -25 -25 0 -20 -5 -25 -25 -25 -23 0 -25 -3
-25 -50 0 -49 -1 -50 -30 -50 -30 0 -30 -1 -30 -55 0 -52 -1 -55 -25 -55 -23
0 -25 -3 -25 -50 0 -47 -2 -50 -25 -50 -23 0 -25 -3 -25 -50 0 -47 -2 -50 -25
-50 -20 0 -25 -5 -25 -25 0 -20 -5 -25 -25 -25 -23 0 -25 -3 -25 -50 0 -47 -2
-50 -25 -50 -24 0 -25 -3 -25 -55 0 -52 -1 -55 -25 -55 -20 0 -25 -5 -25 -25
0 -20 -5 -25 -25 -25 -23 0 -25 -3 -25 -50 0 -49 -1 -50 -30 -50 -29 0 -30 -1
-30 -50 0 -47 -2 -50 -25 -50 -23 0 -25 -3 -25 -50 0 -47 -2 -50 -25 -50 -24
0 -25 -3 -25 -55 0 -52 -1 -55 -25 -55 -20 0 -25 -5 -25 -25 0 -20 -5 -25 -25
-25 -24 0 -25 -2 -25 -75 0 -73 -1 -75 -25 -75 -23 0 -25 -3 -25 -50 0 -47 -2
-50 -25 -50 -21 0 -25 -5 -25 -30 0 -25 -4 -30 -25 -30 -23 0 -25 -3 -25 -50
0 -47 -2 -50 -25 -50 -20 0 -25 -5 -25 -25 0 -21 -5 -25 -30 -25 -29 0 -30 -1
-30 -50 0 -47 -2 -50 -25 -50 -20 0 -25 5 -25 25 0 23 -3 25 -50 25 l-50 0 0
50 c0 47 2 50 25 50 23 0 25 3 25 50 0 47 2 50 25 50 21 0 25 5 25 30 0 25 4
30 25 30 23 0 25 3 25 50 0 49 1 50 30 50 29 0 30 1 30 50 0 47 2 50 25 50 24
0 25 2 25 75 l0 75 50 0 50 0 0 55 c0 52 1 55 25 55 23 0 25 3 25 50 0 47 2
50 25 50 23 0 25 3 25 50 0 47 2 50 25 50 24 0 25 2 25 75 0 73 1 75 25 75 21
0 25 5 25 30 0 25 4 30 25 30 23 0 25 3 25 50 0 49 1 50 30 50 29 0 30 1 30
50 0 47 2 50 25 50 23 0 25 3 25 50 0 47 2 50 25 50 24 0 25 3 25 55 0 52 1
55 25 55 20 0 25 5 25 25 0 20 5 25 25 25 23 0 25 3 25 50 0 47 2 50 25 50 23
0 25 3 25 50 0 47 2 50 25 50 23 0 25 3 25 50 0 47 2 50 25 50 24 0 25 3 25
55 0 54 0 55 30 55 25 0 30 4 30 25 0 20 5 25 25 25 23 0 25 3 25 50 0 47 2
50 25 50 23 0 25 3 25 50 0 47 2 50 25 50 24 0 25 3 25 55 0 52 1 55 25 55 23
0 25 3 25 50 0 47 2 50 25 50 23 0 25 3 25 50 0 47 2 50 25 50 23 0 25 3 25
50 0 47 2 50 25 50 l25 0 0 -125z m-1790 -2360 c0 -23 3 -25 50 -25 47 0 50
-2 50 -25 0 -21 5 -25 30 -25 25 0 30 -4 30 -25 0 -23 3 -25 50 -25 47 0 50
-2 50 -25 0 -20 5 -25 25 -25 20 0 25 -5 25 -25 0 -23 3 -25 50 -25 47 0 50
-2 50 -25 0 -23 3 -25 50 -25 47 0 50 -2 50 -25 0 -21 5 -25 30 -25 27 0 30
-3 30 -30 0 -29 1 -30 50 -30 47 0 50 -2 50 -25 0 -23 3 -25 50 -25 47 0 50
-2 50 -25 0 -24 2 -25 75 -25 73 0 75 -1 75 -25 0 -20 5 -25 25 -25 23 0 25
-3 25 -50 l0 -50 -75 0 c-73 0 -75 1 -75 25 0 20 -5 25 -25 25 -20 0 -25 5
-25 25 0 24 -2 25 -75 25 -73 0 -75 1 -75 25 0 24 -3 25 -55 25 -52 0 -55 1
-55 25 l0 25 -100 0 -100 0 0 25 c0 20 -5 25 -25 25 -24 0 -25 3 -25 55 0 52
-1 55 -25 55 -20 0 -25 5 -25 25 0 24 -3 25 -55 25 -52 0 -55 1 -55 25 0 23
-3 25 -50 25 -47 0 -50 2 -50 25 0 20 -5 25 -25 25 -20 0 -25 5 -25 25 0 20
-5 25 -25 25 -23 0 -25 3 -25 50 l0 50 50 0 c47 0 50 -2 50 -25z m210 -685 c0
-47 -2 -50 -25 -50 -24 0 -25 -3 -25 -55 0 -54 0 -55 -30 -55 l-30 0 0 -100 0
-100 -25 0 c-20 0 -25 -5 -25 -25 0 -20 -5 -25 -25 -25 -20 0 -25 5 -25 25 0
20 -5 25 -25 25 -20 0 -25 5 -25 25 0 20 5 25 25 25 23 0 25 3 25 50 0 47 2
50 25 50 23 0 25 3 25 50 0 47 2 50 25 50 24 0 25 3 25 55 0 54 0 55 30 55 25
0 30 4 30 25 0 20 5 25 25 25 23 0 25 -3 25 -50z"/>
</g>
</svg>
